<svg width="60" height="60" viewBox="0 0 60 60" fill="none" xmlns="http://www.w3.org/2000/svg">
<path fill-rule="evenodd" clip-rule="evenodd" d="M9.49757 36.2182H9.9699C10.7145 46.6898 19.4049 55.0006 29.9988 55.0006C40.6073 55.0006 49.2979 46.7044 50.0423 36.2182H50.5147C52.5619 36.2182 54.1654 34.1727 54.1654 31.5511C54.1654 29.5635 53.2488 27.9212 51.9035 27.23C51.302 17.8965 44.9597 9.98833 35.983 7.43846C35.0236 5.03362 32.6901 3.33398 29.9699 3.33398C27.2356 3.33398 24.9014 5.04827 23.9428 7.45311C15.0087 10.0316 8.69524 17.9247 8.09393 27.2298C6.76259 27.9211 5.83203 29.5775 5.83203 31.5509C5.83139 34.1726 7.43576 36.2182 9.49757 36.2182ZM12.9631 36.2182C13.7069 45.0334 21.0512 51.9762 29.9993 51.9762C38.9464 51.9762 46.3066 45.0334 47.0372 36.2182H12.9631ZM9.48284 33.2086H50.5157C50.673 33.1797 51.1743 32.6177 51.1743 31.5522C51.1743 30.861 50.9736 30.4141 50.7876 30.1549C50.702 30.1697 50.5876 30.1839 50.4872 30.1839H9.51161C9.41609 30.1839 9.31997 30.1703 9.22383 30.1567L9.21122 30.1549C9.02523 30.4289 8.82453 30.8751 8.82453 31.5522C8.82453 32.6183 9.32561 33.1796 9.48284 33.2086ZM36.1413 27.1732H48.597C48.0102 19.6833 43.1278 13.2735 36.1413 10.7388V27.1732ZM33.1495 27.1732V9.94635C33.1495 8.41923 32.2189 6.99312 30.7726 6.51729C28.3673 5.75397 26.1483 7.55452 26.1483 9.85911V27.1732H33.1495ZM23.1558 27.1729V10.7669C16.198 13.3164 11.3444 19.6972 10.7717 27.1729H23.1558Z" fill="white"/>
</svg>
