<svg width="60" height="60" viewBox="0 0 60 60" fill="none" xmlns="http://www.w3.org/2000/svg">
<path fill-rule="evenodd" clip-rule="evenodd" d="M54.5444 55.7147H5.45386C4.80852 55.7147 4.28516 55.1913 4.28516 54.546V12.4677C4.28516 11.8224 4.80852 11.299 5.45386 11.299H25.324V5.45485C25.324 4.80951 25.8473 4.28613 26.4927 4.28613H54.545C55.1904 4.28613 55.7137 4.80951 55.7137 5.45485V54.5459C55.7137 55.1913 55.1904 55.7147 54.545 55.7147L54.5444 55.7147ZM46.3625 53.3772H53.3758V6.62376H27.661V53.3772H34.6737V40.5197C34.6737 39.8744 35.1971 39.351 35.8424 39.351H45.1932C45.8385 39.351 46.3619 39.8744 46.3619 40.5197L46.3625 53.3772ZM25.3243 53.3772V13.6366H6.62222V53.3772H25.3243ZM37.0124 53.3772H44.0257V41.6885H37.0124V53.3772ZM33.5063 32.3374C32.8605 32.3374 32.3371 31.814 32.3371 31.1687C32.3371 30.5233 32.8605 30 33.5063 30H37.0124C37.6583 30 38.1817 30.5233 38.1817 31.1687C38.1817 31.814 37.6583 32.3374 37.0124 32.3374H33.5063ZM44.0257 32.3374C43.3798 32.3374 42.857 31.814 42.857 31.1687C42.857 30.5233 43.3798 30 44.0257 30H47.5324C48.1777 30 48.7011 30.5233 48.7011 31.1687C48.7011 31.814 48.1777 32.3374 47.5324 32.3374H44.0257ZM33.5063 15.9742C32.8605 15.9742 32.3371 15.4508 32.3371 14.8055C32.3371 14.1596 32.8605 13.6367 33.5063 13.6367H37.0124C37.6583 13.6367 38.1817 14.1596 38.1817 14.8055C38.1817 15.4508 37.6583 15.9742 37.0124 15.9742H33.5063ZM44.0257 15.9742C43.3798 15.9742 42.857 15.4508 42.857 14.8055C42.857 14.1596 43.3798 13.6367 44.0257 13.6367H47.5324C48.1777 13.6367 48.7011 14.1596 48.7011 14.8055C48.7011 15.4508 48.1777 15.9742 47.5324 15.9742H44.0257ZM33.5063 24.1562C32.8605 24.1562 32.3371 23.6328 32.3371 22.9869C32.3371 22.3416 32.8605 21.8182 33.5063 21.8182H37.0124C37.6583 21.8182 38.1817 22.3416 38.1817 22.9869C38.1817 23.6328 37.6583 24.1562 37.0124 24.1562H33.5063ZM44.0257 24.1562C43.3798 24.1562 42.857 23.6328 42.857 22.9869C42.857 22.3416 43.3798 21.8182 44.0257 21.8182H47.5324C48.1777 21.8182 48.7011 22.3416 48.7011 22.9869C48.7011 23.6328 48.1777 24.1562 47.5324 24.1562H44.0257ZM12.4663 45.1946C11.821 45.1946 11.2976 44.6713 11.2976 44.0259C11.2976 43.38 11.821 42.8567 12.4663 42.8567H19.4796C20.1249 42.8567 20.6483 43.38 20.6483 44.0259C20.6483 44.6713 20.1249 45.1946 19.4796 45.1946H12.4663ZM12.4663 34.6751C11.821 34.6751 11.2976 34.1518 11.2976 33.5064C11.2976 32.8605 11.821 32.3372 12.4663 32.3372H19.4796C20.1249 32.3372 20.6483 32.8605 20.6483 33.5064C20.6483 34.1518 20.1249 34.6751 19.4796 34.6751H12.4663ZM12.4663 24.1556C11.821 24.1556 11.2976 23.6323 11.2976 22.9864C11.2976 22.341 11.821 21.8177 12.4663 21.8177H19.4796C20.1249 21.8177 20.6483 22.341 20.6483 22.9864C20.6483 23.6323 20.1249 24.1556 19.4796 24.1556H12.4663Z" fill="white"/>
</svg>
