<svg width="60" height="60" viewBox="0 0 60 60" fill="none" xmlns="http://www.w3.org/2000/svg">
<path d="M30.1695 4.28613C41.9644 4.39938 53.116 13.52 55.3038 25.3225C56.8375 33.5976 53.9958 42.5705 47.9735 48.455C40.8792 55.3821 29.6539 57.7087 20.279 53.8762C12.0042 50.4912 5.76519 42.512 4.52164 33.6322C3.41526 25.7168 6.24259 17.3437 11.9213 11.7261C16.5924 7.10645 23.0084 4.39612 29.6702 4.29246C29.8376 4.28765 30.0043 4.28765 30.1717 4.28765L30.1695 4.28613ZM29.8498 6.92776C19.4171 7.0259 9.58815 14.9069 7.41079 25.2373C5.80782 32.8183 8.32992 41.147 13.8761 46.5583C20.2435 52.7819 30.3174 54.8676 38.7243 51.4285C46.1535 48.388 51.7531 41.2257 52.8692 33.2613C54.2259 23.5601 48.6604 13.2492 39.7566 9.08692C36.6686 7.64565 33.2816 6.91739 29.8493 6.92706L29.8498 6.92776ZM36.7822 47.7302H23.2122V36.789H12.2775V23.2108H23.2122V12.2695H36.7822V23.2108H47.7169V36.789H36.7822V47.7302ZM25.8475 14.9115V25.8473H14.9128V34.1519H25.8475V45.0877H34.1415V34.1519H45.0762V25.8473H34.1415V14.9115H25.8475Z" fill="white"/>
</svg>
