<svg width="20" height="20" viewBox="0 0 20 20" fill="none" xmlns="http://www.w3.org/2000/svg">
<path fill-rule="evenodd" clip-rule="evenodd" d="M12.4402 2.82397C12.8033 2.82753 13.0835 2.83047 13.3303 2.88217C14.3367 3.09362 15.1169 3.89033 15.3068 4.90114C15.3534 5.14896 15.3503 5.42913 15.3463 5.79212L15.3449 5.92772C15.3412 6.29086 15.3384 6.57086 15.2865 6.81778C15.0753 7.82423 14.2784 8.60441 13.2677 8.79434C13.0198 8.84094 12.7398 8.83769 12.3766 8.83382L12.2412 8.83227C11.878 8.82871 11.5979 8.82577 11.3511 8.77406C10.3445 8.56262 9.56447 7.76591 9.37453 6.7551C9.35905 6.67321 9.34915 6.58792 9.3428 6.49721H1.22082C0.837858 6.49721 0.527344 6.1867 0.527344 5.80374C0.527344 5.42078 0.837858 5.11026 1.22082 5.11026H9.35627C9.36448 5.01429 9.37671 4.92436 9.39466 4.83845C9.60596 3.832 10.4028 3.05182 11.4135 2.86188C11.6614 2.81529 11.9415 2.81838 12.3046 2.82241L12.4402 2.82397ZM13.0453 4.23957C12.9507 4.21976 12.8207 4.21496 12.3579 4.21016C11.895 4.20521 11.7647 4.20722 11.6698 4.22502C11.2104 4.3114 10.8482 4.66603 10.7522 5.12345C10.7322 5.21803 10.7276 5.34821 10.7226 5.81106C10.7178 6.2739 10.7197 6.40408 10.7375 6.49895C10.8239 6.95838 11.1785 7.32057 11.6361 7.41671C11.7307 7.43652 11.8607 7.44132 12.3237 7.44612C12.7864 7.45107 12.9166 7.44906 13.0116 7.43126C13.471 7.34489 13.8332 6.99025 13.9292 6.53283C13.9492 6.43826 13.9538 6.30807 13.9588 5.84522C13.9636 5.38238 13.9617 5.2522 13.9439 5.15734C13.8575 4.6979 13.5029 4.33571 13.0453 4.23957Z" fill="white"/>
<path d="M18.7889 6.4973C19.1718 6.4973 19.4824 6.18679 19.4824 5.80383C19.4824 5.42087 19.1718 5.11035 18.7889 5.11035H16.9396C16.5566 5.11035 16.2461 5.42087 16.2461 5.80383C16.2461 6.18679 16.5566 6.4973 16.9396 6.4973H18.7889Z" fill="white"/>
<path d="M1.22082 14.8191C0.837858 14.8191 0.527344 14.5086 0.527344 14.1256C0.527344 13.7426 0.837858 13.4321 1.22082 13.4321H3.06966C3.45262 13.4321 3.76314 13.7426 3.76314 14.1256C3.76314 14.5086 3.45262 14.8191 3.06966 14.8191H1.22082Z" fill="white"/>
<path fill-rule="evenodd" clip-rule="evenodd" d="M18.7881 13.432H10.7109C10.7045 13.3593 10.6955 13.2899 10.6828 13.2229C10.4929 12.2121 9.71289 11.4154 8.70644 11.2041C8.45954 11.1522 8.17936 11.1495 7.81637 11.1457L7.68077 11.1442C7.31778 11.1402 7.03763 11.1371 6.7898 11.1837C5.77899 11.3736 4.98213 12.1537 4.77083 13.1602C4.71913 13.4071 4.71619 13.6873 4.71263 14.0503L4.71108 14.1857C4.70706 14.5489 4.70396 14.829 4.75055 15.0769C4.94049 16.0877 5.72063 16.8844 6.72712 17.0958C6.97386 17.1475 7.25404 17.1505 7.61718 17.154L7.75263 17.1556C8.11577 17.1595 8.39594 17.1627 8.64376 17.1161C9.65457 16.9262 10.4513 16.146 10.6626 15.1396C10.6838 15.0392 10.6966 14.9335 10.7048 14.819H18.788C19.1709 14.819 19.4815 14.5085 19.4815 14.1255C19.4815 13.7425 19.1709 13.432 18.788 13.432H18.7881ZM7.73367 12.5319C8.19652 12.5368 8.3267 12.5415 8.42129 12.5615C8.8787 12.6574 9.23333 13.0195 9.31971 13.4789C9.33751 13.5739 9.33953 13.7041 9.33457 14.167C9.32962 14.6298 9.32498 14.76 9.30516 14.8546C9.20903 15.3121 8.84683 15.6666 8.3874 15.753C8.29251 15.7708 8.16233 15.7728 7.69951 15.7678C7.2365 15.7631 7.10649 15.7583 7.0119 15.7384C6.55432 15.6423 6.19986 15.2801 6.11347 14.8207C6.09567 14.7258 6.09366 14.5956 6.09861 14.1328C6.10341 13.6698 6.10821 13.5398 6.12802 13.4452C6.22415 12.9878 6.58619 12.6331 7.04563 12.5467C7.14067 12.5289 7.27085 12.5269 7.73367 12.5319V12.5319Z" fill="white"/>
</svg>
