<svg width="40" height="40" viewBox="0 0 40 40" fill="none" xmlns="http://www.w3.org/2000/svg">
<path d="M27.8655 25.9722L33.6004 31.7057L31.7057 33.6004L25.9722 27.8655C23.8389 29.5757 21.1854 30.5059 18.4512 30.502C11.7992 30.502 6.40039 25.1032 6.40039 18.4512C6.40039 11.7992 11.7992 6.40039 18.4512 6.40039C25.1032 6.40039 30.502 11.7992 30.502 18.4512C30.5059 21.1854 29.5757 23.8389 27.8655 25.9722ZM25.1796 24.9787C26.8789 23.2312 27.8279 20.8887 27.824 18.4512C27.824 13.272 23.629 9.07835 18.4512 9.07835C13.272 9.07835 9.07835 13.272 9.07835 18.4512C9.07835 23.629 13.272 27.824 18.4512 27.824C20.8887 27.8279 23.2312 26.8789 24.9787 25.1796L25.1796 24.9787Z" fill="white"/>
</svg>
