<svg width="27" height="17" viewBox="0 0 27 17" fill="none" xmlns="http://www.w3.org/2000/svg">
<path d="M23.6252 7.35279L20.2498 2.76336L20.2496 2.76317H16.8748L16.8745 11.9423H14.6248V0.46875H0V14.2372H2.36346C2.62411 15.5465 3.75868 16.532 5.11918 16.532C6.47993 16.5318 7.61426 15.5465 7.87491 14.2372H19.1816C19.4423 15.5465 20.5768 16.532 21.9373 16.532C23.2981 16.532 24.4324 15.5465 24.6931 14.2372H27V8.5002L23.6252 7.35279ZM5.11917 15.3842C4.18878 15.3842 3.43167 14.6121 3.43167 13.6632C3.43167 12.7143 4.18878 11.9421 5.11917 11.9421C6.04956 11.9421 6.80666 12.7143 6.80666 13.6632C6.80666 14.6121 6.04975 15.3842 5.11917 15.3842ZM18 7.35279V5.05798H19.6875L21.375 7.35279H18ZM21.9376 15.3842C21.0072 15.3842 20.2501 14.6121 20.2501 13.6632C20.2501 12.7143 21.0072 11.9421 21.9376 11.9421C22.868 11.9421 23.6251 12.7143 23.6251 13.6632C23.6251 14.6121 22.868 15.3842 21.9376 15.3842Z" fill="#0F64DA"/>
</svg>
