<svg width="15" height="26" viewBox="0 0 15 26" fill="none" xmlns="http://www.w3.org/2000/svg">
<path d="M4.30949 13.5977L3.44824 25.2115C7.62409 19.7569 7.33696 20.0179 7.62409 20.0179C7.91122 20.0179 7.62409 19.7568 11.7999 25.2115L10.9126 13.5977C8.85076 14.6155 6.37146 14.5893 4.30972 13.5977H4.30949Z" fill="#0F64DA"/>
<path d="M11.799 25.2115C7.62311 19.7569 7.91024 20.0179 7.62311 20.0179C7.33598 20.0179 7.62311 19.7568 3.44727 25.2115L4.33457 13.5977C6.42249 14.6155 8.9018 14.6155 10.9375 13.5977L11.799 25.2115Z" fill="#0F64DA"/>
<path d="M7.62359 0.157227C3.94366 0.157227 0.942383 3.15864 0.942383 6.83843C0.942383 9.1872 2.14301 11.3274 4.15245 12.554C8.56313 15.2421 14.2786 12.0581 14.2786 6.83843C14.3047 3.15869 11.3034 0.157227 7.62354 0.157227H7.62359ZM11.4078 10.5966C10.5205 11.4839 9.39819 12.0058 8.17156 12.1364C7.98897 12.1626 7.80637 12.1626 7.62359 12.1626C6.18813 12.1626 4.8572 11.6144 3.83936 10.5966C0.498755 7.25598 2.87358 1.48822 7.62359 1.48822C12.3736 1.48822 14.7224 7.2821 11.4078 10.5966Z" fill="#0F64DA"/>
<path d="M7.6237 2.34961C5.14439 2.34961 3.13477 4.35924 3.13477 6.83854C3.13477 10.8056 7.96298 12.8673 10.8077 10.0226C13.6263 7.17787 11.6167 2.34961 7.6237 2.34961Z" fill="#0F64DA"/>
</svg>
