<svg width="2440" height="714" viewBox="0 0 2440 714" fill="none" xmlns="http://www.w3.org/2000/svg">
<g opacity="0.85">
<path d="M1942.82 0.404301L1895.05 27.4058L1895.05 83.4859L1942.82 110.487L1990.59 83.4859L1990.59 27.4058L1942.82 0.404301Z" fill="#E5ECF0"/>
<path d="M1942.82 172.798L1895.05 199.799L1895.05 255.879L1942.82 282.881L1990.59 255.879L1990.59 199.799L1942.82 172.798Z" fill="#E5ECF0"/>
<path d="M1344.63 0.404789L1296.86 27.4063L1296.86 83.4864L1344.63 110.488L1392.4 83.4864L1392.4 27.4063L1344.63 0.404789Z" fill="#E5ECF0"/>
<path d="M1344.63 172.798L1296.86 199.799L1296.86 255.879L1344.63 282.881L1392.4 255.879L1392.4 199.799L1344.63 172.798Z" fill="#E5ECF0"/>
<path d="M2142.21 0.403813L2094.44 27.4053L2094.44 83.4854L2142.21 110.487L2189.99 83.4854L2189.99 27.4053L2142.21 0.403813Z" fill="#E5ECF0"/>
<path d="M2142.22 172.799L2094.44 199.8L2094.44 255.88L2142.22 282.882L2189.99 255.88L2189.99 199.8L2142.22 172.799Z" fill="#E5ECF0"/>
<path d="M1544.03 0.404301L1496.25 27.4058L1496.25 83.4859L1544.03 110.487L1591.8 83.4859L1591.8 27.4058L1544.03 0.404301Z" fill="#E5ECF0"/>
<path d="M1544.03 172.799L1496.26 199.8L1496.26 255.88L1544.03 282.882L1591.8 255.88L1591.8 199.8L1544.03 172.799Z" fill="#E5ECF0"/>
<path d="M2341.61 0.404789L2293.84 27.4063L2293.84 83.4864L2341.61 110.488L2389.38 83.4864L2389.38 27.4063L2341.61 0.404789Z" fill="#E5ECF0"/>
<path d="M2341.61 172.798L2293.84 199.799L2293.84 255.879L2341.61 282.881L2389.38 255.879L2389.38 199.799L2341.61 172.798Z" fill="#E5ECF0"/>
<path d="M1743.42 0.404789L1695.65 27.4063L1695.65 83.4864L1743.42 110.488L1791.19 83.4864L1791.19 27.4063L1743.42 0.404789Z" fill="#E5ECF0"/>
<path d="M1743.43 172.798L1695.65 199.8L1695.65 255.88L1743.43 282.881L1791.2 255.88L1791.2 199.8L1743.43 172.798Z" fill="#E5ECF0"/>
<path d="M1992.67 86.6016L1944.9 113.603L1944.9 169.683L1992.67 196.685L2040.44 169.683L2040.44 113.603L1992.67 86.6016Z" fill="#E5ECF0"/>
<path d="M1992.67 258.995L1944.9 285.997L1944.9 342.077L1992.67 369.078L2040.44 342.077L2040.44 285.997L1992.67 258.995Z" fill="#E5ECF0"/>
<path d="M1394.48 86.6021L1346.71 113.604L1346.71 169.684L1394.48 196.685L1442.25 169.684L1442.25 113.604L1394.48 86.6021Z" fill="#E5ECF0"/>
<path d="M1394.48 258.995L1346.71 285.997L1346.71 342.077L1394.48 369.078L1442.25 342.077L1442.25 285.997L1394.48 258.995Z" fill="#E5ECF0"/>
<path d="M2192.06 86.6011L2144.29 113.603L2144.29 169.683L2192.06 196.684L2239.83 169.683L2239.83 113.603L2192.06 86.6011Z" fill="#E5ECF0"/>
<path d="M2192.06 258.996L2144.29 285.997L2144.29 342.077L2192.06 369.079L2239.84 342.077L2239.84 285.997L2192.06 258.996Z" fill="#E5ECF0"/>
<path d="M1593.87 86.6016L1546.1 113.603L1546.1 169.683L1593.87 196.685L1641.65 169.683L1641.65 113.603L1593.87 86.6016Z" fill="#E5ECF0"/>
<path d="M1593.88 258.996L1546.11 285.998L1546.11 342.078L1593.88 369.079L1641.65 342.078L1641.65 285.998L1593.88 258.996Z" fill="#E5ECF0"/>
<path d="M2391.46 86.6021L2343.69 113.604L2343.69 169.684L2391.46 196.685L2439.23 169.684L2439.23 113.604L2391.46 86.6021Z" fill="#E5ECF0"/>
<path d="M2391.46 258.995L2343.69 285.997L2343.69 342.077L2391.46 369.078L2439.23 342.077L2439.23 285.997L2391.46 258.995Z" fill="#E5ECF0"/>
<path d="M1793.27 86.6021L1745.5 113.604L1745.5 169.684L1793.27 196.685L1841.04 169.684L1841.04 113.604L1793.27 86.6021Z" fill="#E5ECF0"/>
<path d="M1793.27 258.996L1745.5 285.997L1745.5 342.077L1793.27 369.079L1841.04 342.077L1841.04 285.997L1793.27 258.996Z" fill="#E5ECF0"/>
<path d="M1843.12 0.403324L1795.35 27.4049L1795.35 83.485L1843.12 110.486L1890.89 83.4849L1890.89 27.4048L1843.12 0.403324Z" fill="#E5ECF0"/>
<path d="M1843.12 172.799L1795.35 199.801L1795.35 255.881L1843.12 282.882L1890.89 255.881L1890.89 199.801L1843.12 172.799Z" fill="#E5ECF0"/>
<path d="M1244.94 0.403324L1197.16 27.4049L1197.16 83.485L1244.94 110.486L1292.71 83.4849L1292.71 27.4048L1244.94 0.403324Z" fill="#E5ECF0"/>
<path d="M1244.93 172.798L1197.16 199.8L1197.16 255.88L1244.93 282.881L1292.71 255.88L1292.71 199.8L1244.93 172.798Z" fill="#E5ECF0"/>
<path d="M2042.52 0.404301L1994.75 27.4058L1994.75 83.4859L2042.52 110.487L2090.29 83.4859L2090.29 27.4058L2042.52 0.404301Z" fill="#E5ECF0"/>
<path d="M2042.52 172.799L1994.74 199.8L1994.74 255.88L2042.52 282.882L2090.29 255.88L2090.29 199.8L2042.52 172.799Z" fill="#E5ECF0"/>
<path d="M1444.33 0.402836L1396.56 27.4044L1396.56 83.4845L1444.33 110.486L1492.1 83.4845L1492.1 27.4044L1444.33 0.402836Z" fill="#E5ECF0"/>
<path d="M1444.33 172.799L1396.56 199.801L1396.56 255.881L1444.33 282.882L1492.1 255.881L1492.1 199.801L1444.33 172.799Z" fill="#E5ECF0"/>
<path d="M2241.91 0.403813L2194.14 27.4053L2194.14 83.4854L2241.91 110.487L2289.69 83.4854L2289.69 27.4053L2241.91 0.403813Z" fill="#E5ECF0"/>
<path d="M2241.91 172.798L2194.14 199.8L2194.14 255.88L2241.91 282.881L2289.68 255.88L2289.68 199.8L2241.91 172.798Z" fill="#E5ECF0"/>
<path d="M1643.73 0.403813L1595.96 27.4053L1595.96 83.4854L1643.73 110.487L1691.5 83.4854L1691.5 27.4053L1643.73 0.403813Z" fill="#E5ECF0"/>
<path d="M1643.72 172.798L1595.95 199.8L1595.95 255.88L1643.72 282.881L1691.5 255.88L1691.5 199.8L1643.72 172.798Z" fill="#E5ECF0"/>
<path d="M1892.97 86.6006L1845.2 113.602L1845.2 169.682L1892.97 196.684L1940.74 169.682L1940.74 113.602L1892.97 86.6006Z" fill="#E5ECF0"/>
<path d="M1892.97 258.997L1845.2 285.998L1845.2 342.078L1892.97 369.08L1940.74 342.078L1940.74 285.998L1892.97 258.997Z" fill="#E5ECF0"/>
<path d="M1294.78 86.6006L1247.01 113.602L1247.01 169.682L1294.78 196.684L1342.56 169.682L1342.56 113.602L1294.78 86.6006Z" fill="#E5ECF0"/>
<path d="M1294.78 258.996L1247.01 285.997L1247.01 342.077L1294.78 369.079L1342.55 342.077L1342.55 285.997L1294.78 258.996Z" fill="#D7E0E9" fill-opacity="0.76"/>
<path d="M2092.37 86.6016L2044.59 113.603L2044.59 169.683L2092.37 196.685L2140.14 169.683L2140.14 113.603L2092.37 86.6016Z" fill="#E5ECF0"/>
<path d="M2092.36 258.996L2044.59 285.998L2044.59 342.078L2092.36 369.079L2140.14 342.078L2140.14 285.998L2092.36 258.996Z" fill="#E5ECF0"/>
<path d="M1494.18 86.6001L1446.41 113.602L1446.41 169.682L1494.18 196.683L1541.95 169.682L1541.95 113.602L1494.18 86.6001Z" fill="#E5ECF0"/>
<path d="M1494.18 258.996L1446.41 285.998L1446.41 342.078L1494.18 369.079L1541.95 342.078L1541.95 285.998L1494.18 258.996Z" fill="#E5ECF0"/>
<path d="M2291.76 86.6011L2243.99 113.603L2243.99 169.683L2291.76 196.684L2339.54 169.683L2339.54 113.603L2291.76 86.6011Z" fill="#E5ECF0"/>
<path d="M2291.76 258.996L2243.99 285.997L2243.99 342.077L2291.76 369.079L2339.53 342.077L2339.53 285.997L2291.76 258.996Z" fill="#E5ECF0"/>
<path d="M1693.58 86.6011L1645.8 113.603L1645.8 169.683L1693.58 196.684L1741.35 169.683L1741.35 113.603L1693.58 86.6011Z" fill="#E5ECF0"/>
<path d="M1693.57 258.996L1645.8 285.997L1645.8 342.077L1693.57 369.079L1741.34 342.077L1741.34 285.997L1693.57 258.996Z" fill="#E5ECF0"/>
<path d="M1942.82 345.193L1895.05 372.194L1895.05 428.275L1942.82 455.276L1990.59 428.274L1990.59 372.194L1942.82 345.193Z" fill="#E5ECF0"/>
<path d="M1942.81 517.589L1895.04 544.59L1895.04 600.671L1942.81 627.672L1990.59 600.67L1990.59 544.59L1942.81 517.589Z" fill="#E5ECF0"/>
<path d="M1344.63 345.193L1296.86 372.194L1296.86 428.275L1344.63 455.276L1392.4 428.274L1392.4 372.194L1344.63 345.193Z" fill="#E5ECF0"/>
<path d="M1344.63 517.588L1296.85 544.589L1296.85 600.67L1344.63 627.671L1392.4 600.67L1392.4 544.589L1344.63 517.588Z" fill="#E5ECF0"/>
<path d="M2142.21 345.194L2094.44 372.195L2094.44 428.275L2142.21 455.277L2189.98 428.275L2189.98 372.195L2142.21 345.194Z" fill="#E5ECF0"/>
<path d="M2142.21 517.587L2094.44 544.588L2094.44 600.669L2142.21 627.67L2189.99 600.669L2189.99 544.588L2142.21 517.587Z" fill="#E5ECF0"/>
<path d="M1544.02 345.192L1496.25 372.194L1496.25 428.274L1544.02 455.276L1591.8 428.274L1591.8 372.194L1544.02 345.192Z" fill="#E5ECF0"/>
<path d="M1544.02 517.588L1496.25 544.59L1496.25 600.67L1544.02 627.672L1591.79 600.67L1591.79 544.59L1544.02 517.588Z" fill="#E5ECF0"/>
<path d="M2341.61 517.586L2293.84 544.588L2293.84 600.668L2341.61 627.67L2389.38 600.668L2389.38 544.588L2341.61 517.586Z" fill="#D7E0E9" fill-opacity="0.76"/>
<path d="M1743.42 345.193L1695.65 372.195L1695.65 428.275L1743.42 455.277L1791.19 428.275L1791.19 372.195L1743.42 345.193Z" fill="#E5ECF0"/>
<path d="M1743.42 517.588L1695.65 544.589L1695.65 600.67L1743.42 627.671L1791.19 600.67L1791.19 544.589L1743.42 517.588Z" fill="#E5ECF0"/>
<path d="M1992.67 431.39L1944.89 458.392L1944.89 514.472L1992.67 541.473L2040.44 514.472L2040.44 458.392L1992.67 431.39Z" fill="#E5ECF0"/>
<path d="M1394.48 431.39L1346.71 458.392L1346.71 514.472L1394.48 541.473L1442.25 514.472L1442.25 458.392L1394.48 431.39Z" fill="#D7E0E9" fill-opacity="0.76"/>
<path d="M2192.06 431.391L2144.29 458.393L2144.29 514.473L2192.06 541.474L2239.83 514.473L2239.83 458.393L2192.06 431.391Z" fill="#E5ECF0"/>
<path d="M2192.06 603.784L2144.29 630.786L2144.29 686.866L2192.06 713.867L2239.84 686.866L2239.84 630.786L2192.06 603.784Z" fill="#E5ECF0"/>
<path d="M1793.27 431.391L1745.5 458.392L1745.5 514.472L1793.27 541.474L1841.04 514.472L1841.04 458.392L1793.27 431.391Z" fill="#D7E0E9" fill-opacity="0.76"/>
<path d="M1843.12 517.588L1795.35 544.589L1795.35 600.67L1843.12 627.671L1890.89 600.67L1890.89 544.589L1843.12 517.588Z" fill="#E5ECF0"/>
<path d="M1244.93 345.193L1197.16 372.195L1197.16 428.275L1244.93 455.277L1292.7 428.275L1292.7 372.195L1244.93 345.193Z" fill="#E5ECF0"/>
<path d="M1244.93 517.588L1197.16 544.589L1197.16 600.67L1244.93 627.671L1292.7 600.67L1292.7 544.589L1244.93 517.588Z" fill="#D7E0E9" fill-opacity="0.76"/>
<path d="M2042.51 345.194L1994.74 372.195L1994.74 428.275L2042.51 455.277L2090.28 428.275L2090.28 372.195L2042.51 345.194Z" fill="#E5ECF0"/>
<path d="M2241.91 345.193L2194.14 372.195L2194.14 428.275L2241.91 455.277L2289.68 428.275L2289.68 372.195L2241.91 345.193Z" fill="#D7E0E9" fill-opacity="0.76"/>
<path d="M1643.72 345.194L1595.95 372.195L1595.95 428.275L1643.72 455.277L1691.49 428.275L1691.49 372.195L1643.72 345.194Z" fill="#E5ECF0"/>
<path d="M1643.72 517.587L1595.95 544.588L1595.95 600.669L1643.72 627.67L1691.49 600.669L1691.49 544.588L1643.72 517.587Z" fill="#E5ECF0"/>
<path d="M1892.97 603.785L1845.2 630.787L1845.2 686.867L1892.97 713.868L1940.74 686.867L1940.74 630.787L1892.97 603.785Z" fill="#D7E0E9" fill-opacity="0.76"/>
<path d="M1294.78 603.785L1247.01 630.787L1247.01 686.867L1294.78 713.868L1342.55 686.867L1342.55 630.787L1294.78 603.785Z" fill="#D7E0E9" fill-opacity="0.76"/>
<path d="M2092.36 603.785L2044.59 630.786L2044.59 686.866L2092.36 713.868L2140.13 686.866L2140.13 630.786L2092.36 603.785Z" fill="#D7E0E9" fill-opacity="0.76"/>
<path d="M1494.17 431.392L1446.4 458.393L1446.4 514.473L1494.17 541.475L1541.95 514.473L1541.95 458.393L1494.17 431.392Z" fill="#D7E0E9" fill-opacity="0.76"/>
<path d="M1494.18 603.785L1446.4 630.786L1446.4 686.866L1494.18 713.868L1541.95 686.866L1541.95 630.786L1494.18 603.785Z" fill="#E5ECF0"/>
<path d="M2291.76 431.389L2243.99 458.391L2243.99 514.471L2291.76 541.472L2339.53 514.471L2339.53 458.391L2291.76 431.389Z" fill="#E5ECF0"/>
<path d="M1693.57 431.391L1645.8 458.393L1645.8 514.473L1693.57 541.474L1741.34 514.473L1741.34 458.393L1693.57 431.391Z" fill="#E5ECF0"/>
<path d="M746.443 0.404789L698.671 27.4063L698.671 83.4864L746.443 110.488L794.215 83.4864L794.215 27.4063L746.443 0.404789Z" fill="#E5ECF0"/>
<path d="M746.445 172.798L698.673 199.8L698.673 255.88L746.445 282.881L794.217 255.88L794.217 199.8L746.445 172.798Z" fill="#E5ECF0"/>
<path d="M148.255 0.405278L100.483 27.4068L100.483 83.4869L148.255 110.488L196.027 83.4869L196.027 27.4068L148.255 0.405278Z" fill="#E5ECF0"/>
<path d="M148.257 172.798L100.485 199.8L100.485 255.88L148.257 282.881L196.029 255.88L196.029 199.8L148.257 172.798Z" fill="#E5ECF0"/>
<path d="M945.839 0.404301L898.067 27.4058L898.067 83.4859L945.839 110.487L993.611 83.4859L993.611 27.4058L945.839 0.404301Z" fill="#E5ECF0"/>
<path d="M945.841 172.799L898.069 199.801L898.069 255.881L945.841 282.882L993.613 255.881L993.613 199.801L945.841 172.799Z" fill="#E5ECF0"/>
<path d="M347.652 0.404789L299.88 27.4063L299.88 83.4864L347.652 110.488L395.424 83.4864L395.424 27.4063L347.652 0.404789Z" fill="#E5ECF0"/>
<path d="M347.654 172.799L299.882 199.801L299.882 255.881L347.654 282.882L395.426 255.881L395.426 199.801L347.654 172.799Z" fill="#E5ECF0"/>
<path d="M1145.23 0.405278L1097.46 27.4068L1097.46 83.4869L1145.23 110.488L1193.01 83.4869L1193.01 27.4068L1145.23 0.405278Z" fill="#E5ECF0"/>
<path d="M1145.24 172.798L1097.46 199.8L1097.46 255.88L1145.24 282.881L1193.01 255.88L1193.01 199.8L1145.24 172.798Z" fill="#E5ECF0"/>
<path d="M547.046 0.405278L499.274 27.4068L499.274 83.4869L547.046 110.488L594.818 83.4869L594.818 27.4068L547.046 0.405278Z" fill="#E5ECF0"/>
<path d="M547.05 172.799L499.278 199.8L499.278 255.88L547.05 282.882L594.822 255.88L594.822 199.8L547.05 172.799Z" fill="#E5ECF0"/>
<path d="M796.293 86.6021L748.521 113.604L748.521 169.684L796.293 196.685L844.064 169.684L844.064 113.604L796.293 86.6021Z" fill="#E5ECF0"/>
<path d="M796.294 258.996L748.523 285.997L748.523 342.077L796.294 369.079L844.066 342.077L844.066 285.997L796.294 258.996Z" fill="#D7E0E9" fill-opacity="0.76"/>
<path d="M198.105 86.6025L150.333 113.604L150.333 169.684L198.105 196.686L245.877 169.684L245.877 113.604L198.105 86.6025Z" fill="#E5ECF0"/>
<path d="M198.107 258.996L150.335 285.997L150.335 342.077L198.107 369.079L245.879 342.077L245.879 285.997L198.107 258.996Z" fill="#E5ECF0"/>
<path d="M995.687 86.6016L947.915 113.603L947.915 169.683L995.687 196.685L1043.46 169.683L1043.46 113.603L995.687 86.6016Z" fill="#E5ECF0"/>
<path d="M995.689 258.996L947.917 285.998L947.917 342.078L995.689 369.079L1043.46 342.078L1043.46 285.998L995.689 258.996Z" fill="#E5ECF0"/>
<path d="M397.5 86.6021L349.728 113.604L349.728 169.684L397.5 196.685L445.271 169.684L445.271 113.604L397.5 86.6021Z" fill="#E5ECF0"/>
<path d="M397.503 258.997L349.732 285.998L349.732 342.078L397.503 369.08L445.275 342.078L445.275 285.998L397.503 258.997Z" fill="#E5ECF0"/>
<path d="M1195.08 86.6025L1147.31 113.604L1147.31 169.684L1195.08 196.686L1242.86 169.684L1242.86 113.604L1195.08 86.6025Z" fill="#E5ECF0"/>
<path d="M1195.09 258.996L1147.31 285.997L1147.31 342.077L1195.09 369.079L1242.86 342.077L1242.86 285.997L1195.09 258.996Z" fill="#E5ECF0"/>
<path d="M596.896 86.6025L549.124 113.604L549.124 169.684L596.896 196.686L644.668 169.684L644.668 113.604L596.896 86.6025Z" fill="#E5ECF0"/>
<path d="M596.898 258.996L549.126 285.998L549.126 342.078L596.898 369.079L644.67 342.078L644.67 285.998L596.898 258.996Z" fill="#E5ECF0"/>
<path d="M646.748 0.403813L598.976 27.4053L598.976 83.4854L646.748 110.487L694.52 83.4854L694.52 27.4053L646.748 0.403813Z" fill="#E5ECF0"/>
<path d="M646.746 172.8L598.974 199.801L598.974 255.881L646.746 282.883L694.518 255.881L694.518 199.801L646.746 172.8Z" fill="#E5ECF0"/>
<path d="M48.5601 0.403813L0.788163 27.4053L0.788168 83.4854L48.5601 110.487L96.332 83.4854L96.332 27.4053L48.5601 0.403813Z" fill="#E5ECF0"/>
<path d="M48.5581 172.799L0.78621 199.8L0.786214 255.88L48.5582 282.882L96.3301 255.88L96.3301 199.8L48.5581 172.799Z" fill="#E5ECF0"/>
<path d="M846.144 0.404789L798.372 27.4063L798.372 83.4864L846.144 110.488L893.916 83.4864L893.916 27.4063L846.144 0.404789Z" fill="#E5ECF0"/>
<path d="M846.14 172.799L798.368 199.801L798.368 255.881L846.14 282.882L893.912 255.881L893.912 199.801L846.14 172.799Z" fill="#E5ECF0"/>
<path d="M247.957 0.403324L200.185 27.4049L200.185 83.485L247.957 110.486L295.729 83.4849L295.729 27.4048L247.957 0.403324Z" fill="#E5ECF0"/>
<path d="M247.953 172.8L200.181 199.801L200.181 255.881L247.953 282.883L295.725 255.881L295.725 199.801L247.953 172.8Z" fill="#E5ECF0"/>
<path d="M1045.54 0.404301L997.767 27.4058L997.767 83.4859L1045.54 110.487L1093.31 83.4859L1093.31 27.4058L1045.54 0.404301Z" fill="#E5ECF0"/>
<path d="M1045.54 172.799L997.765 199.8L997.765 255.88L1045.54 282.882L1093.31 255.88L1093.31 199.8L1045.54 172.799Z" fill="#D7E0E9" fill-opacity="0.76"/>
<path d="M447.353 0.404301L399.581 27.4058L399.581 83.4859L447.353 110.487L495.125 83.4859L495.125 27.4058L447.353 0.404301Z" fill="#E5ECF0"/>
<path d="M447.349 172.799L399.577 199.8L399.577 255.88L447.349 282.882L495.121 255.88L495.121 199.8L447.349 172.799Z" fill="#E5ECF0"/>
<path d="M696.597 86.6011L648.825 113.603L648.825 169.683L696.597 196.684L744.369 169.683L744.369 113.603L696.597 86.6011Z" fill="#E5ECF0"/>
<path d="M696.593 258.997L648.821 285.999L648.821 342.079L696.593 369.08L744.365 342.079L744.365 285.999L696.593 258.997Z" fill="#E5ECF0"/>
<path d="M98.4097 86.6011L50.6378 113.603L50.6378 169.683L98.4097 196.684L146.182 169.683L146.182 113.603L98.4097 86.6011Z" fill="#E5ECF0"/>
<path d="M98.4058 258.996L50.6339 285.998L50.6339 342.078L98.4058 369.079L146.178 342.078L146.178 285.998L98.4058 258.996Z" fill="#E5ECF0"/>
<path d="M895.992 86.6021L848.22 113.604L848.22 169.684L895.992 196.685L943.764 169.684L943.764 113.604L895.992 86.6021Z" fill="#E5ECF0"/>
<path d="M895.99 258.997L848.218 285.998L848.218 342.078L895.99 369.08L943.762 342.078L943.762 285.998L895.99 258.997Z" fill="#E5ECF0"/>
<path d="M297.806 86.6021L250.034 113.604L250.034 169.684L297.806 196.685L345.578 169.684L345.578 113.604L297.806 86.6021Z" fill="#E5ECF0"/>
<path d="M297.802 258.997L250.03 285.998L250.03 342.078L297.802 369.08L345.574 342.078L345.574 285.998L297.802 258.997Z" fill="#E5ECF0"/>
<path d="M1095.39 86.6016L1047.62 113.603L1047.62 169.683L1095.39 196.685L1143.16 169.683L1143.16 113.603L1095.39 86.6016Z" fill="#E5ECF0"/>
<path d="M1095.38 258.996L1047.61 285.998L1047.61 342.078L1095.38 369.079L1143.16 342.078L1143.16 285.998L1095.38 258.996Z" fill="#E5ECF0"/>
<path d="M497.201 86.6016L449.429 113.603L449.429 169.683L497.201 196.685L544.973 169.683L544.973 113.603L497.201 86.6016Z" fill="#E5ECF0"/>
<path d="M497.197 258.996L449.425 285.998L449.425 342.078L497.197 369.079L544.969 342.078L544.969 285.998L497.197 258.996Z" fill="#E5ECF0"/>
<path d="M746.443 345.193L698.671 372.194L698.671 428.275L746.443 455.276L794.215 428.274L794.215 372.194L746.443 345.193Z" fill="#E5ECF0"/>
<path d="M746.445 517.586L698.673 544.588L698.673 600.668L746.445 627.67L794.217 600.668L794.217 544.588L746.445 517.586Z" fill="#E5ECF0"/>
<path d="M945.839 345.192L898.067 372.194L898.067 428.274L945.839 455.276L993.611 428.274L993.611 372.194L945.839 345.192Z" fill="#D7E0E9" fill-opacity="0.76"/>
<path d="M945.841 517.587L898.069 544.589L898.069 600.669L945.841 627.671L993.613 600.669L993.613 544.589L945.841 517.587Z" fill="#E5ECF0"/>
<path d="M347.654 517.586L299.882 544.587L299.882 600.668L347.654 627.669L395.426 600.668L395.426 544.587L347.654 517.586Z" fill="#E5ECF0"/>
<path d="M1145.24 517.586L1097.46 544.588L1097.46 600.668L1145.24 627.67L1193.01 600.668L1193.01 544.588L1145.24 517.586Z" fill="#E5ECF0"/>
<path d="M547.046 345.193L499.274 372.195L499.274 428.275L547.046 455.277L594.818 428.275L594.818 372.195L547.046 345.193Z" fill="#E5ECF0"/>
<path d="M547.05 517.587L499.278 544.588L499.278 600.669L547.05 627.67L594.822 600.669L594.822 544.588L547.05 517.587Z" fill="#E5ECF0"/>
<path d="M796.293 431.39L748.521 458.392L748.521 514.472L796.293 541.473L844.064 514.472L844.064 458.392L796.293 431.39Z" fill="#E5ECF0"/>
<path d="M995.687 431.39L947.915 458.391L947.915 514.471L995.687 541.473L1043.46 514.471L1043.46 458.391L995.687 431.39Z" fill="#E5ECF0"/>
<path d="M397.5 431.39L349.728 458.392L349.728 514.472L397.5 541.473L445.271 514.472L445.271 458.392L397.5 431.39Z" fill="#E5ECF0"/>
<path d="M1195.08 431.391L1147.31 458.392L1147.31 514.472L1195.08 541.474L1242.86 514.472L1242.86 458.392L1195.08 431.391Z" fill="#E5ECF0"/>
<path d="M1195.09 603.784L1147.31 630.785L1147.31 686.865L1195.09 713.867L1242.86 686.865L1242.86 630.785L1195.09 603.784Z" fill="#E5ECF0"/>
<path d="M596.896 431.391L549.124 458.392L549.124 514.472L596.896 541.474L644.668 514.472L644.668 458.392L596.896 431.391Z" fill="#D7E0E9" fill-opacity="0.76"/>
<path d="M646.746 517.588L598.974 544.589L598.974 600.67L646.746 627.671L694.518 600.67L694.518 544.589L646.746 517.588Z" fill="#E5ECF0"/>
<path d="M48.5601 345.192L0.788163 372.193L0.788168 428.274L48.5601 455.275L96.332 428.274L96.332 372.193L48.5601 345.192Z" fill="#E5ECF0"/>
<path d="M846.144 345.193L798.372 372.194L798.372 428.275L846.144 455.276L893.916 428.274L893.916 372.194L846.144 345.193Z" fill="#E5ECF0"/>
<path d="M247.957 345.191L200.185 372.193L200.185 428.273L247.957 455.275L295.729 428.273L295.729 372.193L247.957 345.191Z" fill="#D7E0E9" fill-opacity="0.76"/>
<path d="M1045.54 345.192L997.767 372.194L997.767 428.274L1045.54 455.276L1093.31 428.274L1093.31 372.194L1045.54 345.192Z" fill="#E5ECF0"/>
<path d="M1045.54 517.587L997.765 544.588L997.765 600.669L1045.54 627.67L1093.31 600.669L1093.31 544.588L1045.54 517.587Z" fill="#D7E0E9" fill-opacity="0.76"/>
<path d="M447.353 345.192L399.581 372.194L399.581 428.274L447.353 455.276L495.125 428.274L495.125 372.194L447.353 345.192Z" fill="#E5ECF0"/>
<path d="M696.597 431.389L648.825 458.391L648.825 514.471L696.597 541.472L744.369 514.471L744.369 458.391L696.597 431.389Z" fill="#E5ECF0"/>
<path d="M895.992 431.39L848.22 458.392L848.22 514.472L895.992 541.473L943.764 514.472L943.764 458.392L895.992 431.39Z" fill="#E5ECF0"/>
<path d="M297.804 431.389L250.032 458.39L250.032 514.47L297.804 541.472L345.576 514.47L345.576 458.39L297.804 431.389Z" fill="#D7E0E9" fill-opacity="0.76"/>
<path d="M497.201 431.39L449.429 458.391L449.429 514.471L497.201 541.473L544.973 514.471L544.973 458.391L497.201 431.39Z" fill="#E5ECF0"/>
<path d="M497.197 603.784L449.425 630.786L449.425 686.866L497.197 713.867L544.969 686.866L544.969 630.786L497.197 603.784Z" fill="#D7E0E9" fill-opacity="0.76"/>
</g>
</svg>
