<svg width="29" height="23" viewBox="0 0 29 23" fill="none" xmlns="http://www.w3.org/2000/svg">
<path d="M0 23V16.6734C0 14.8061 0.33881 12.84 1.01643 10.7751C1.69405 8.71012 2.63636 6.73304 3.84337 4.84384C5.05038 2.95463 6.46915 1.34002 8.09967 0L12.8007 3.49283C11.5089 5.44794 10.4078 7.49092 9.49726 9.62177C8.58671 11.7526 8.13144 14.0702 8.13144 16.5745V23H0ZM16.1993 23V16.6734C16.1993 14.8061 16.5382 12.84 17.2158 10.7751C17.8934 8.71012 18.8357 6.73304 20.0427 4.84384C21.2497 2.95463 22.6685 1.34002 24.299 0L29 3.49283C27.7083 5.44794 26.6072 7.49092 25.6966 9.62177C24.7861 11.7526 24.3308 14.0702 24.3308 16.5745V23H16.1993Z" fill="#0F64DA"/>
</svg>
