<svg width="15" height="17" viewBox="0 0 15 17" fill="none" xmlns="http://www.w3.org/2000/svg">
<path d="M7.5005 -0.000183758C6.59626 -0.0425937 5.69312 0.104265 4.84891 0.430993C4.00469 0.75772 3.238 1.25712 2.5979 1.89721C1.9578 2.53731 1.4584 3.30401 1.13168 4.14822C0.804949 4.99244 0.65809 5.89558 0.7005 6.79982C0.7005 8.94182 2.4005 11.0498 3.2505 11.8998C4.1005 12.7498 7.5005 16.9998 7.5005 16.9998C7.5005 16.9998 10.9005 12.7498 11.7505 11.8998C12.6005 11.0498 14.3005 8.94182 14.3005 6.79982C14.3429 5.89558 14.1961 4.99244 13.8693 4.14822C13.5426 3.30401 13.0432 2.53731 12.4031 1.89721C11.763 1.25712 10.9963 0.75772 10.1521 0.430993C9.30788 0.104265 8.40474 -0.0425937 7.5005 -0.000183758ZM7.5005 9.56232C6.95413 9.56232 6.42003 9.4003 5.96574 9.09675C5.51145 8.79321 5.15737 8.36176 4.94828 7.85698C4.7392 7.3522 4.68449 6.79675 4.79108 6.26088C4.89767 5.72501 5.16077 5.23278 5.54712 4.84643C5.93346 4.46009 6.42569 4.19699 6.96156 4.0904C7.49744 3.98381 8.05288 4.03851 8.55766 4.2476C9.06244 4.45669 9.49389 4.81076 9.79743 5.26505C10.101 5.71935 10.263 6.25345 10.263 6.79982C10.263 7.16259 10.1915 7.52182 10.0527 7.85698C9.91389 8.19214 9.7104 8.49668 9.45388 8.7532C9.19736 9.00972 8.89283 9.21321 8.55766 9.35203C8.2225 9.49086 7.86328 9.56232 7.5005 9.56232Z" fill="#0F64DA"/>
</svg>
