<svg width="35" height="65" viewBox="0 0 35 65" fill="none" xmlns="http://www.w3.org/2000/svg">
<path d="M8.89693 35.2363L6.66406 65.3462C17.4903 51.2047 16.7459 51.8813 17.4903 51.8813C18.2347 51.8813 17.4903 51.2045 28.3166 65.3462L26.0162 35.2363C20.6706 37.8752 14.2428 37.8071 8.89754 35.2363H8.89693Z" fill="white"/>
<path d="M28.3146 65.3462C17.4884 51.2047 18.2328 51.8813 17.4884 51.8813C16.744 51.8813 17.4884 51.2045 6.66211 65.3462L8.96252 35.2363C14.3757 37.8752 20.8035 37.8752 26.0812 35.2363L28.3146 65.3462Z" fill="white"/>
<path d="M17.4896 0.389648C7.94905 0.389648 0.167969 8.17109 0.167969 17.7113C0.167969 23.8007 3.28069 29.3493 8.49036 32.5294C19.9255 39.4987 34.7435 31.2437 34.7435 17.7113C34.811 8.17122 27.0299 0.389648 17.4895 0.389648H17.4896ZM27.3006 27.4547C25.0002 29.7551 22.0904 31.1082 18.9103 31.4467C18.4369 31.5146 17.9635 31.5146 17.4896 31.5146C13.768 31.5146 10.3175 30.0935 7.67864 27.4546C-0.982176 18.7938 5.17476 3.84038 17.4896 3.84038C29.8045 3.84038 35.8939 18.8616 27.3006 27.4547Z" fill="white"/>
<path d="M17.4895 6.07324C11.0617 6.07324 5.85156 11.2834 5.85156 17.7112C5.85156 27.9961 18.3692 33.3413 25.7444 25.9661C33.052 18.591 27.8418 6.07324 17.4895 6.07324Z" fill="white"/>
</svg>
