<svg width="70" height="42" viewBox="0 0 70 42" fill="none" xmlns="http://www.w3.org/2000/svg">
<path d="M61.2505 18.0243L52.4995 6.12575L52.499 6.12525H43.7496L43.7486 29.923H37.9161V0.176758H0V35.8728H6.12748C6.80325 39.2671 9.74472 41.8223 13.272 41.8223C16.7998 41.8218 19.7407 39.2671 20.4164 35.8728H49.7301C50.4058 39.2671 53.3473 41.8223 56.8745 41.8223C60.4024 41.8223 63.3433 39.2671 64.019 35.8728H70V20.999L61.2505 18.0243ZM13.2719 38.8465C10.8598 38.8465 8.89693 36.8446 8.89693 34.3845C8.89693 31.9244 10.8598 29.9225 13.2719 29.9225C15.684 29.9225 17.6469 31.9244 17.6469 34.3845C17.6469 36.8446 15.6845 38.8465 13.2719 38.8465ZM46.6668 18.0243V12.0747H51.0418L55.4168 18.0243H46.6668ZM56.8753 38.8465C54.4631 38.8465 52.5003 36.8446 52.5003 34.3845C52.5003 31.9244 54.4631 29.9225 56.8753 29.9225C59.2874 29.9225 61.2502 31.9244 61.2502 34.3845C61.2502 36.8446 59.2874 38.8465 56.8753 38.8465Z" fill="white"/>
</svg>
