<svg width="60" height="60" viewBox="0 0 60 60" fill="none" xmlns="http://www.w3.org/2000/svg">
<path d="M30.1704 4.18614L29.8453 4.18302L29.8537 4.18887C29.792 4.18958 29.7301 4.1907 29.668 4.19248C22.9807 4.29671 16.5403 7.01733 11.851 11.655L11.851 11.655C6.1498 17.2948 3.31186 25.6994 4.4226 33.646L4.4226 33.646C5.67112 42.5613 11.9336 50.5703 20.2411 53.9687L20.279 53.8762L20.2412 53.9687C29.6535 57.8165 40.921 55.481 48.0434 48.5265L48.0434 48.5265C54.0896 42.6187 56.9419 33.6121 55.4022 25.3043C53.2054 13.4538 42.0123 4.29983 30.1704 4.18614ZM29.8508 7.02776L29.9345 7.02697C33.3234 7.02949 36.6655 7.75454 39.7143 9.17754C48.5782 13.3212 54.1208 23.5896 52.7702 33.2474C51.6591 41.1764 46.0829 48.3089 38.6864 51.3359C30.317 54.7597 20.2853 52.6829 13.946 46.4868L13.946 46.4867C8.42431 41.0994 5.91274 32.8056 7.50863 25.258L7.50864 25.2579C9.67616 14.9742 19.4642 7.12547 29.8508 7.02776ZM36.7822 47.8302H36.8822V47.7302V36.889H47.7169H47.8169V36.789V23.2108V23.1108H47.7169H36.8822V12.2695V12.1695H36.7822H23.2122H23.1122V12.2695V23.1108H12.2775H12.1775V23.2108V36.789V36.889H12.2775H23.1122V47.7302V47.8302H23.2122H36.7822ZM25.8475 25.9473H25.9475V25.8473V15.0115H34.0415V25.8473V25.9473H34.1415H44.9762V34.0519H34.1415H34.0415V34.1519V44.9877H25.9475V34.1519V34.0519H25.8475H15.0128V25.9473H25.8475Z" fill="#0F64DA" stroke="#0F64DA" stroke-width="0.2"/>
</svg>
